<svg width="22" height="22" viewBox="0 0 22 22" fill="none" xmlns="http://www.w3.org/2000/svg">
<path d="M10.4884 20.9768C4.70699 20.9768 0 16.2698 0 10.4884C0 4.70699 4.70699 0 10.4884 0C16.2698 0 20.9768 4.70699 20.9768 10.4884C20.9768 16.2698 16.2698 20.9768 10.4884 20.9768ZM10.4884 1.53489C5.54606 1.53489 1.53489 5.5563 1.53489 10.4884C1.53489 15.4205 5.54606 19.4419 10.4884 19.4419C15.4307 19.4419 19.4419 15.4205 19.4419 10.4884C19.4419 5.5563 15.4307 1.53489 10.4884 1.53489Z" fill="white"/>
<path d="M21.2323 22C21.0379 22 20.8435 21.9284 20.69 21.7749L18.6435 19.7284C18.3467 19.4316 18.3467 18.9405 18.6435 18.6437C18.9402 18.347 19.4314 18.347 19.7281 18.6437L21.7746 20.6902C22.0714 20.987 22.0714 21.4781 21.7746 21.7749C21.6211 21.9284 21.4267 22 21.2323 22Z" fill="white"/>
</svg>
