<svg width="40" height="40" viewBox="0 0 40 40" fill="none" xmlns="http://www.w3.org/2000/svg">
<path d="M2 20.367C2 16.2479 2 14.1883 2.93456 12.4809C3.86912 10.7736 5.57651 9.71392 8.99125 7.59463L12.5913 5.36037C16.2009 3.12012 18.0058 2 20 2C21.9942 2 23.7991 3.12012 27.4088 5.36037L31.0088 7.59462C34.4236 9.71392 36.1309 10.7736 37.0654 12.4809C38 14.1883 38 16.2479 38 20.367V23.105C38 30.1264 38 33.6373 35.8911 35.8186C33.7824 38 30.3882 38 23.6 38H16.4C9.61177 38 6.21767 38 4.10883 35.8186C2 33.6373 2 30.1264 2 23.105V20.367Z" stroke="white" stroke-width="3"/>
<path d="M25.4006 30.8H14.6006" stroke="white" stroke-width="3" stroke-linecap="round"/>
</svg>
