<svg width="39" height="39" viewBox="0 0 39 39" fill="none" xmlns="http://www.w3.org/2000/svg">
<path fill-rule="evenodd" clip-rule="evenodd" d="M30.9275 13.823C32.5151 12.2354 32.5151 9.66132 30.9275 8.07368C29.3399 6.48602 26.7657 6.48602 25.1781 8.07368C23.5904 9.66132 23.5904 12.2354 25.1781 13.823C26.7657 15.4107 29.3399 15.4107 30.9275 13.823ZM29.2343 9.76686C29.8868 10.4194 29.8868 11.4773 29.2343 12.1299C28.5818 12.7824 27.5238 12.7824 26.8713 12.1299C26.2187 11.4773 26.2187 10.4194 26.8713 9.76686C27.5238 9.11433 28.5818 9.11433 29.2343 9.76686Z" fill="white"/>
<path fill-rule="evenodd" clip-rule="evenodd" d="M0.876675 19.4659C-0.292227 20.6347 -0.292223 22.5299 0.876675 23.6987L15.3014 38.1233C16.4702 39.2923 18.3654 39.2923 19.5342 38.1233L38.1234 19.5343C38.6847 18.973 39 18.2117 39 17.4179V2.99321C39 1.34015 37.6599 6.10352e-05 36.0069 6.10352e-05H21.5822C20.7884 6.10352e-05 20.0271 0.315406 19.4658 0.876736L0.876675 19.4659ZM18.4785 34.9463C17.8926 35.5321 16.943 35.5321 16.3571 34.9463L4.05381 22.6429C3.46803 22.0571 3.46803 21.1075 4.05381 20.5216L21.1428 3.43256C21.4242 3.15125 21.8057 2.99321 22.2036 2.99321H34.5069C35.3352 2.99321 36.0069 3.66479 36.0069 4.49321V16.7965C36.0069 17.1944 35.8488 17.5759 35.5676 17.8571L18.4785 34.9463Z" fill="white"/>
</svg>
